<svg width="661" height="478" viewBox="0 0 661 478" fill="none" xmlns="http://www.w3.org/2000/svg">
<g clip-path="url(#clip0_658_2)">
<path d="M660.04 262.93C660.04 263.394 659.664 263.77 659.2 263.77H0V262.09H659.2C659.664 262.09 660.04 262.466 660.04 262.93V262.93Z" fill="#E6E6E6"/>
<path d="M216.748 58.9315C230.507 58.9315 241.66 47.7781 241.66 34.0197C241.66 20.2613 230.507 9.10791 216.748 9.10791C202.99 9.10791 191.837 20.2613 191.837 34.0197C191.837 47.7781 202.99 58.9315 216.748 58.9315Z" fill="#FFB6B6"/>
<path d="M229.949 64.188L197.159 73.5567L192.474 84.0965L181.935 134.453V214.088C181.935 214.088 169.053 242.194 176.079 266.787C183.59 293.074 210.041 262.047 229.949 265.588C249.858 269.129 281.477 272.642 281.477 272.642L262.74 187.153L258.055 82.9255L229.949 64.188H229.949Z" fill="#ADDDFF"/>
<path d="M223.761 42.1777L218.696 39.6453C218.696 39.6453 217.43 28.2495 214.898 25.7171C212.365 23.1847 212.365 21.9184 212.365 21.9184L216.164 16.8536C216.164 16.8536 197.171 26.9833 193.372 20.6522C189.574 14.3212 194.639 11.7888 194.639 11.7888L188.308 6.72403C188.308 6.72403 195.905 11.7888 197.171 7.99023C198.437 4.19162 206.034 1.61435 206.034 1.61435C206.034 1.61435 222.625 5.36809 221.294 1.61435C219.963 -2.13939 225.027 1.65922 226.294 2.92542C227.56 4.19162 238.956 16.8536 240.222 15.5874C241.488 14.3212 247.819 18.1198 246.553 19.386C245.287 20.6523 245.287 21.9184 246.553 23.1847C247.819 24.4509 255.416 38.3791 249.085 43.4439C242.754 48.5087 233.891 54.8397 235.157 59.9045C236.423 64.9693 235.157 43.4439 223.761 42.1777L223.761 42.1777Z" fill="#2F2E41"/>
<path d="M100.958 104.899C94.564 99.3868 92.2251 91.6198 95.7336 87.5513C99.242 83.4827 107.268 84.6534 113.664 90.1681C116.249 92.3359 118.277 95.0913 119.579 98.2037L146.375 121.9L134.987 134.238L109.78 109.568C106.508 108.738 103.483 107.137 100.958 104.899L100.958 104.899Z" fill="#FFB6B6"/>
<path d="M192.755 84.4992L210.407 82.8945L225.886 156.72C228.836 170.788 219.615 184.522 205.478 187.117L192.755 189.452L111.669 118.058L123.516 98.3091L183.313 135.819L192.755 84.4992V84.4992Z" fill="#ADDDFF"/>
<path d="M153.349 412.812C153.349 412.812 139.349 438.812 140.349 437.812C141.349 436.812 158.349 442.812 158.349 442.812L168.349 416.812L153.349 412.812Z" fill="#FFB6B6"/>
<path d="M132.685 230.817C132.685 230.817 125.519 259.464 126.241 258.248C126.964 257.033 144.918 258.662 144.918 258.662L148.208 231L132.685 230.817H132.685Z" fill="#FFB6B6"/>
<path d="M257.349 226C225.71 230.445 197.133 226.569 173.849 208.312C173.849 208.312 156.849 265.312 187.849 271.312C218.849 277.312 253.349 267 257.349 257C261.349 247 257.349 226 257.349 226Z" fill="#2F2E41"/>
<path d="M198.349 244L163.849 325.312L147.849 419.312L168.849 424.312L206.412 337.812L257.349 255L198.349 244Z" fill="#2F2E41"/>
<path d="M193.849 220.813C193.849 220.813 185.849 158.813 170.849 154.813C163.536 152.863 156.699 153.052 151.611 153.757C146.484 154.469 142.396 158.386 141.5 163.485L127.868 241H147.144L153.349 220L169.849 248.813L193.849 220.813V220.813Z" fill="#2F2E41"/>
<path d="M144.849 250.812L125.79 248.812L122.849 259.812C122.849 259.812 91.8487 287.812 107.849 289.812C123.849 291.812 138.849 280.812 138.849 280.812L160.859 268.187C160.859 268.187 152.349 245.5 146.349 245.5C140.349 245.5 144.849 250.812 144.849 250.812V250.812Z" fill="#2F2E41"/>
<path d="M154.849 438.312L135.79 436.312L132.849 447.312C132.849 447.312 101.849 475.312 117.849 477.312C133.849 479.312 148.849 468.312 148.849 468.312L170.859 455.687C170.859 455.687 169.349 432 163.349 432C157.349 432 154.849 438.312 154.849 438.312Z" fill="#2F2E41"/>
<path d="M251.351 286.928C249.053 294.809 243.124 300.012 238.108 298.549C233.093 297.086 230.891 289.511 233.191 281.627C234.066 278.465 235.686 275.559 237.915 273.152L248.074 239.881L263.585 244.981L251.924 277.238C252.51 280.468 252.313 283.79 251.351 286.928V286.928Z" fill="#FFB6B6"/>
<path d="M262.088 83.0702L253.999 80.7891V80.7891C246.373 95.9634 243.093 112.952 244.524 129.875L248.516 177.095L235.344 260.093L261.16 266.772L281.504 162.613L262.088 83.0702V83.0702Z" fill="#ADDDFF"/>
<path d="M446.733 38.5435C446.733 38.5435 456.27 44.1363 453.142 49.6673C450.014 55.1983 445.654 62.7321 448.612 65.1048C451.57 67.4775 456.454 77.9388 456.454 77.9388C456.454 77.9388 477.299 75.0274 475.342 91.2199C473.385 107.412 463.593 109.62 471.986 116.743C480.38 123.867 463.263 132.387 463.263 132.387C463.263 132.387 451.446 128.704 448.75 117.38C446.054 106.056 451.153 126.039 449.443 127.472C447.733 128.904 441.092 138.349 436.393 125.792C431.695 113.235 436.348 108.367 430.139 100.956C423.93 93.5453 419.709 81.5587 419.894 79.4634C420.079 77.3681 412.792 58.2481 424.008 50.7914C435.224 43.3348 446.733 38.5435 446.733 38.5435V38.5435Z" fill="#2F2E41"/>
<path d="M540.67 214.233C546.207 218.816 553.059 219.673 555.975 216.149C558.891 212.625 556.765 206.054 551.226 201.471C549.038 199.61 546.436 198.299 543.639 197.65L519.933 178.53L511.198 189.845L535.495 207.493C536.657 210.121 538.431 212.432 540.67 214.233V214.233Z" fill="#FFB6B6"/>
<path d="M469.622 109.958C469.622 109.958 451.019 97.5166 444.927 103.617C438.835 109.718 440.29 124.955 440.29 124.955L489.075 181.811L527.76 206.401L538.133 190.158L505.61 161.137L469.622 109.958V109.958Z" fill="#ADDDFF"/>
<path d="M442.353 83.0078L449.103 107H412.055L424.255 77.438L442.353 83.0078Z" fill="#FFB6B6"/>
<path opacity="0.1" d="M442.353 83.0078L449.103 107H412.055L424.255 77.438L442.353 83.0078Z" fill="black"/>
<path d="M361.56 260.149C361.082 267.32 364.394 273.38 368.958 273.684C373.522 273.987 377.609 268.42 378.086 261.246C378.316 258.383 377.857 255.507 376.747 252.857L378.39 222.446L364.103 221.979L364 252.009C362.548 254.488 361.712 257.28 361.56 260.149V260.149Z" fill="#FFB6B6"/>
<path d="M404.581 141.531C404.581 141.531 403.791 119.165 395.28 117.792C386.768 116.419 375.26 126.512 375.26 126.512L357.68 199.337L360.362 245.097L379.604 244.01L384.12 200.656L404.581 141.531V141.531Z" fill="#ADDDFF"/>
<path d="M487.103 408.812C487.103 408.812 501.103 434.812 500.103 433.812C499.103 432.812 482.103 438.812 482.103 438.812L472.103 412.812L487.103 408.812Z" fill="#FFB6B6"/>
<path d="M507.766 226.817C507.766 226.817 514.933 255.464 514.21 254.248C513.487 253.033 495.533 254.662 495.533 254.662L492.243 227L507.766 226.817V226.817Z" fill="#FFB6B6"/>
<path d="M452.103 99H417.15L379.103 125L368.103 216L374.103 234L385.103 255C385.103 255 374.103 209 401.103 227C428.103 245 430.103 248 430.103 248L466.103 230L479.603 155.5L469.603 114.5L452.103 99Z" fill="#ADDDFF"/>
<path d="M383.103 222C414.741 226.445 443.318 222.569 466.603 204.312C466.603 204.312 483.603 261.312 452.603 267.312C421.603 273.312 387.103 263 383.103 253C379.103 243 383.103 222 383.103 222Z" fill="#2F2E41"/>
<path d="M442.103 240L476.603 321.312L492.603 415.312L471.603 420.312L434.04 333.812L383.103 251L442.103 240Z" fill="#2F2E41"/>
<path d="M446.603 216.813C446.603 216.813 454.603 154.813 469.603 150.813C476.915 148.863 483.753 149.052 488.84 149.757C493.968 150.469 498.055 154.386 498.952 159.485L512.583 237H493.307L487.103 216L470.603 244.813L446.603 216.813V216.813Z" fill="#2F2E41"/>
<path d="M495.603 246.812L514.662 244.812L517.603 255.812C517.603 255.812 548.603 283.812 532.603 285.812C516.603 287.812 501.603 276.812 501.603 276.812L479.593 264.187C479.593 264.187 488.103 241.5 494.103 241.5C500.103 241.5 495.603 246.812 495.603 246.812V246.812Z" fill="#2F2E41"/>
<path d="M485.603 434.312L504.662 432.312L507.603 443.312C507.603 443.312 538.603 471.312 522.603 473.312C506.603 475.312 491.603 464.312 491.603 464.312L469.593 451.687C469.593 451.687 471.103 428 477.103 428C483.103 428 485.603 434.312 485.603 434.312Z" fill="#2F2E41"/>
<path d="M433.551 88.2213C445.873 88.2213 455.861 78.2325 455.861 65.9107C455.861 53.5889 445.873 43.6001 433.551 43.6001C421.229 43.6001 411.24 53.5889 411.24 65.9107C411.24 78.2325 421.229 88.2213 433.551 88.2213Z" fill="#FFB6B6"/>
<path d="M442.103 40.9973C442.103 40.9973 445.822 51.4089 439.872 53.64C433.923 55.8711 425.742 58.8458 426.486 62.5642C427.23 66.2827 424.255 77.438 424.255 77.438C424.255 77.438 442.103 88.5933 430.204 99.7486C418.305 110.904 409.381 106.307 411.24 117.158C413.099 128.009 394.507 123.547 394.507 123.547C394.507 123.547 387.814 113.135 393.02 102.723C398.226 92.3117 389.301 110.904 387.07 110.904C384.839 110.904 373.684 113.879 378.146 101.236C382.608 88.5933 389.301 87.8496 389.301 78.1817C389.301 68.5137 393.764 56.6147 395.251 55.1274C396.738 53.64 403.432 34.3041 416.818 35.7915C430.204 37.2789 442.103 40.9973 442.103 40.9973V40.9973Z" fill="#2F2E41"/>
<path d="M247.103 408.812C247.103 408.812 233.103 434.812 234.103 433.812C235.103 432.812 252.103 438.812 252.103 438.812L262.103 412.812L247.103 408.812V408.812Z" fill="#A0616A"/>
<path d="M351.103 222C319.464 226.445 290.887 222.569 267.603 204.312C267.603 204.312 250.603 261.312 281.603 267.312C312.603 273.312 347.103 263 351.103 253C355.103 243 351.103 222 351.103 222Z" fill="#2F2E41"/>
<path d="M292.103 240L257.603 321.312L241.603 415.312L262.603 420.312L300.166 333.812L351.103 251L292.103 240Z" fill="#2F2E41"/>
<path d="M248.603 434.312L229.544 432.312L226.603 443.312C226.603 443.312 195.603 471.312 211.603 473.312C227.603 475.312 242.603 464.312 242.603 464.312L264.613 451.687C264.613 451.687 263.103 428 257.103 428C251.103 428 248.603 434.312 248.603 434.312V434.312Z" fill="#2F2E41"/>
<path d="M278.714 395.133C278.714 395.133 273.418 424.184 274.061 422.924C274.704 421.665 292.726 422.127 292.726 422.127L294.217 394.311L278.714 395.133Z" fill="#A0616A"/>
<path d="M269.44 220.672L261.708 308.662L275.488 403.013L297.006 401.291L306.051 307.422L328.956 212.934L269.44 220.672Z" fill="#2F2E41"/>
<path d="M288.008 418.927L269.262 422.904L269.858 434.275C269.858 434.275 249.008 470.473 264.845 467.439C280.681 464.405 291.556 449.314 291.556 449.314L308.597 430.514C308.597 430.514 299.853 408.449 294.146 410.3C288.439 412.151 288.008 418.927 288.008 418.927V418.927Z" fill="#2F2E41"/>
<path d="M287.472 38.5435C287.472 38.5435 277.936 44.1363 281.063 49.6673C284.191 55.1983 288.551 62.7321 285.593 65.1048C282.635 67.4775 277.751 77.9388 277.751 77.9388C277.751 77.9388 256.906 75.0274 258.863 91.2199C260.82 107.412 270.613 109.62 262.219 116.743C253.826 123.867 270.943 132.387 270.943 132.387C270.943 132.387 282.76 128.704 285.456 117.38C288.152 106.056 283.052 126.039 284.762 127.472C286.473 128.904 293.113 138.349 297.812 125.792C302.511 113.235 297.858 108.367 304.067 100.956C310.275 93.5453 314.497 81.5587 314.312 79.4634C314.127 77.3681 321.414 58.2481 310.198 50.7914C298.981 43.3348 287.472 38.5435 287.472 38.5435V38.5435Z" fill="#2F2E41"/>
<path d="M291.853 83.0078L285.103 107H322.15L309.951 77.438L291.853 83.0078Z" fill="#A0616A"/>
<path opacity="0.1" d="M291.853 83.0078L285.103 107H322.15L309.951 77.438L291.853 83.0078Z" fill="black"/>
<path d="M372.645 260.149C373.124 267.32 369.811 273.38 365.247 273.684C360.683 273.987 356.597 268.42 356.119 261.246C355.889 258.383 356.348 255.507 357.458 252.857L355.815 222.446L370.103 221.979L370.205 252.009C371.657 254.488 372.494 257.28 372.645 260.149H372.645Z" fill="#A0616A"/>
<path d="M329.624 141.531C329.624 141.531 330.414 119.165 338.925 117.792C347.437 116.419 358.945 126.512 358.945 126.512L376.526 199.337L373.843 245.097L354.602 244.01L350.086 200.656L329.624 141.531V141.531Z" fill="#214692"/>
<path d="M282.103 99H317.055L355.103 125L366.103 216L360.103 234L349.103 255C349.103 255 360.103 209 333.103 227C332.833 227.18 332.565 227.359 332.3 227.536C314.92 239.144 291.986 237.952 275.898 224.611L263.103 214L270.103 179L264.603 114.5L282.103 99V99Z" fill="#214692"/>
<path d="M194.642 212.93C189.036 217.427 182.171 218.181 179.309 214.613C176.447 211.044 178.672 204.507 184.281 200.008C186.496 198.181 189.118 196.91 191.925 196.303L215.919 177.545L224.481 188.992L199.919 206.269C198.717 208.879 196.907 211.163 194.642 212.93V212.93Z" fill="#A0616A"/>
<path d="M267.266 109.746C267.266 109.746 286.056 97.5889 292.055 103.781C298.053 109.974 296.367 125.187 296.367 125.187L246.723 181.295L207.669 205.294L197.544 188.896L230.504 160.372L267.266 109.746V109.746Z" fill="#214692"/>
<path d="M300.655 88.2213C312.976 88.2213 322.965 78.2325 322.965 65.9107C322.965 53.5889 312.976 43.6001 300.655 43.6001C288.333 43.6001 278.344 53.5889 278.344 65.9107C278.344 78.2325 288.333 88.2213 300.655 88.2213Z" fill="#A0616A"/>
<path d="M289.548 50.9563C289.548 50.9563 286.261 40 291.739 40C297.217 40 319.13 41.0956 321.321 43.2869C323.512 45.4781 349.441 67.47 334.103 85C318.764 102.53 334.103 111 334.103 111C334.103 111 345.425 137.511 334.468 139.702C323.512 141.893 278.571 129.364 289.548 109.024C301.46 86.9521 307.003 52.1145 289.548 50.9563L289.548 50.9563Z" fill="#2F2E41"/>
<path d="M167.16 204.692L166.031 169.1C166.013 168.522 166.24 167.959 166.654 167.556C167.069 167.153 167.638 166.942 168.215 166.976L196.46 168.67C197.03 168.704 197.566 168.977 197.928 169.419C198.291 169.86 198.456 170.438 198.379 171.004L193.601 206.38C193.457 207.451 192.5 208.233 191.422 208.161L169.084 206.684C168.858 206.669 168.642 206.619 168.442 206.538C167.704 206.24 167.186 205.53 167.16 204.692V204.692Z" fill="#FFE5BE"/>
<path d="M166.066 165.77C166.462 165.728 166.991 165.677 167.626 165.624C167.456 165.307 167.387 164.933 167.46 164.549L167.964 161.883C168.095 161.191 168.652 160.661 169.35 160.568C173.509 160.012 187.813 158.503 196.82 162.589C197.383 162.845 197.746 163.406 197.764 164.025L197.846 166.869C197.857 167.221 197.754 167.547 197.575 167.817C198.324 168.018 199.07 168.231 199.811 168.463C200.275 168.609 200.607 169.018 200.663 169.501L200.802 170.713C200.891 171.481 200.261 172.142 199.489 172.09L165.723 169.81C164.954 169.758 164.419 169.025 164.604 168.277L164.993 166.704C165.118 166.198 165.547 165.825 166.066 165.77V165.77Z" fill="#3F3D56"/>
<path d="M82.1596 103.692L81.0313 68.0995C81.013 67.5218 81.2401 66.9593 81.6545 66.5563C82.0691 66.1531 82.638 65.9417 83.2154 65.9763L111.46 67.6703C112.03 67.7042 112.566 67.9771 112.928 68.4186C113.291 68.8599 113.456 69.4377 113.379 70.004L108.601 105.38C108.457 106.451 107.5 107.233 106.422 107.161L84.0842 105.684C83.8576 105.669 83.6418 105.619 83.4419 105.538C82.7042 105.24 82.1862 104.53 82.1596 103.692V103.692Z" fill="#FFE5BE"/>
<path d="M81.0664 64.77C81.4615 64.7283 81.9909 64.6772 82.6263 64.6238C82.4564 64.3075 82.3869 63.9334 82.4595 63.5494L82.9639 60.8834C83.0948 60.1914 83.6523 59.661 84.3503 59.5676C88.509 59.0116 102.813 57.5028 111.82 61.5891C112.383 61.8448 112.746 62.4062 112.764 63.0247L112.846 65.869C112.857 66.2207 112.754 66.5466 112.575 66.8168C113.324 67.0182 114.07 67.2311 114.811 67.4632C115.275 67.6087 115.607 68.0182 115.663 68.5012L115.802 69.7127C115.891 70.4815 115.261 71.1424 114.489 71.0903L80.7225 68.8099C79.9541 68.758 79.4189 68.0247 79.6039 67.2771L79.9929 65.7043C80.1182 65.1975 80.5473 64.8246 81.0664 64.7699V64.77Z" fill="#3F3D56"/>
<path d="M525.16 213.692L524.031 178.1C524.013 177.522 524.24 176.959 524.654 176.556C525.069 176.153 525.638 175.942 526.215 175.976L554.46 177.67C555.03 177.704 555.566 177.977 555.928 178.419C556.291 178.86 556.456 179.438 556.379 180.004L551.601 215.38C551.457 216.451 550.5 217.233 549.422 217.161L527.084 215.684C526.858 215.669 526.642 215.619 526.442 215.538C525.704 215.24 525.186 214.53 525.16 213.692V213.692Z" fill="#FFE5BE"/>
<path d="M524.066 174.77C524.462 174.728 524.991 174.677 525.626 174.624C525.456 174.307 525.387 173.933 525.46 173.549L525.964 170.883C526.095 170.191 526.652 169.661 527.35 169.568C531.509 169.012 545.813 167.503 554.82 171.589C555.383 171.845 555.746 172.406 555.764 173.025L555.846 175.869C555.857 176.221 555.754 176.547 555.575 176.817C556.324 177.018 557.07 177.231 557.811 177.463C558.275 177.609 558.607 178.018 558.663 178.501L558.802 179.713C558.891 180.481 558.261 181.142 557.489 181.09L523.723 178.81C522.954 178.758 522.419 178.025 522.604 177.277L522.993 175.704C523.118 175.198 523.547 174.825 524.066 174.77V174.77Z" fill="#3F3D56"/>
</g>
<defs>
<clipPath id="clip0_658_2">
<rect width="660.04" height="477.556" fill="white"/>
</clipPath>
</defs>
</svg>
